Coordinates
version=1
nRows=24
nColumns=22
inDegrees=yes

Units are S.I. units (second, meters, Newtons, ...)
If the header above contains a line with 'inDegrees', this indicates whether rotational values are in degrees (yes) or radians (no).

endheader
time	pelvis_tilt	pelvis_list	pelvis_rotation	pelvis_tx	pelvis_ty	pelvis_tz	hip_flexion_r	hip_adduction_r	hip_rotation_r	knee_angle_r	ankle_angle_r	subtalar_angle_r	hip_flexion_l	hip_adduction_l	hip_rotation_l	knee_angle_l	ankle_angle_l	subtalar_angle_l	lumbar_extension	lumbar_bending	lumbar_rotation
      3.95000000	      3.41424135	     -2.72747339	      5.90513322	      0.42827381	      1.06217563	     -0.32070566	     15.73552048	      3.03902719	    -11.49398353	    -14.37822655	      1.86891787	      0.37163153	     -5.95249886	     -2.28727461	      3.24364847	    -30.91606795	     15.15576501	      5.78599642	     -5.73880009	      3.00004459	     -9.92446640
      3.96000000	      3.50194312	     -2.97525023	      6.17990062	      0.43654850	      1.06319618	     -0.31938728	     15.32103610	      3.36530537	    -11.54907330	    -14.58535029	      1.96276163	      0.34432249	     -5.31343315	     -2.69216979	      3.47668249	    -32.83241353	     13.73060360	      6.84084731	     -5.66285325	      3.28388264	     -9.82959653
      3.97000000	      3.60225142	     -3.18333134	      6.46416912	      0.44467927	      1.06423161	     -0.31803809	     14.84150141	      3.67960909	    -11.58192273	    -14.68626301	      2.12330593	      0.18614112	     -4.60577561	     -3.07153149	      3.69516857	    -34.82648717	     12.18022158	      8.00048233	     -5.61976273	      3.51005036	     -9.71680882
      3.98000000	      3.72580332	     -3.36242253	      6.77478249	      0.45266131	      1.06527901	     -0.31670981	     14.28092683	      3.98297083	    -11.64036963	    -14.67042381	      2.30283414	     -0.05720138	     -3.84232501	     -3.44330967	      3.89428605	    -36.87981202	     10.54888453	      9.19194954	     -5.61838791	      3.69775771	     -9.60211032
      3.99000000	      3.87839494	     -3.52458826	      7.11768132	      0.46049226	      1.06633349	     -0.31543802	     13.63296441	      4.28097503	    -11.75830581	    -14.53502928	      2.47702332	     -0.32646024	     -3.03324910	     -3.82311845	      4.06903896	    -38.96944909	      8.90875283	     10.35880700	     -5.65958043	      3.86734568	     -9.49468169
      4.00000000	      4.06539816	     -3.68469723	      7.49445315	      0.46816557	      1.06737730	     -0.31423582	     12.89933179	      4.58646105	    -11.93638104	    -14.28974964	      2.64423963	     -0.57613672	     -2.18635604	     -4.23247582	      4.20721485	    -41.07662008	      7.35017827	     11.43175972	     -5.74511696	      4.04198618	     -9.40232405
      4.01000000	      4.27574760	     -3.83420423	      7.85954284	      0.47569104	      1.06840691	     -0.31299970	     12.10178320	      4.89941872	    -12.15646498	    -13.95113498	      2.79528128	     -0.81237202	     -1.31963588	     -4.65326780	      4.30517468	    -43.15039485	      5.95981207	     12.47012129	     -5.86638494	      4.19233183	     -9.24989273
      4.02000000	      4.51498159	     -4.01842891	      8.25171831	      0.48307081	      1.06939435	     -0.31179563	     11.23859392	      5.26246244	    -12.42018406	    -13.51611155	      2.93032131	     -0.99189390	     -0.42525433	     -5.14624593	      4.36666621	    -45.18256356	      4.86811450	     13.21362469	     -6.01297511	      4.38468813	     -9.11463193
      4.03000000	      4.76338998	     -4.23365613	      8.63751365	      0.49032527	      1.07032681	     -0.31057409	     10.33373052	      5.67893702	    -12.66963113	    -12.98997935	      3.05444592	     -1.10720371	      0.49224428	     -5.69567245	      4.39086893	    -47.12574750	      4.12327098	     13.57409937	     -6.15985903	      4.60771501	     -8.95642288
      4.04000000	      5.01508663	     -4.45469026	      8.98575624	      0.49741678	      1.07121577	     -0.30930105	      9.42722949	      6.11882985	    -12.89137086	    -12.44071389	      3.14293076	     -1.19926450	      1.41689042	     -6.26428556	      4.37560210	    -48.93954736	      3.71892026	     13.70013363	     -6.31269082	      4.83067962	     -8.73748943
      4.05000000	      5.26410921	     -4.68801120	      9.30700283	      0.50439900	      1.07205455	     -0.30799659	      8.51176750	      6.59028735	    -13.07154320	    -11.84790976	      3.25897011	     -1.29149980	      2.33625980	     -6.84955932	      4.35121313	    -50.59117777	      3.72792465	     13.58420647	     -6.45158488	      5.06172993	     -8.49119380
      4.06000000	      5.49989300	     -4.91334598	      9.58499825	      0.51123211	      1.07286812	     -0.30667462	      7.61354309	      7.06460565	    -13.19722112	    -11.24399182	      3.35959219	     -1.36810830	      3.24186517	     -7.40786796	      4.33428869	    -52.05072328	      4.05673765	     13.19755665	     -6.57539110	      5.28017421	     -8.19528383
      4.07000000	      5.71928266	     -5.09538675	      9.81898735	      0.51793054	      1.07370183	     -0.30536384	      6.71979936	      7.50320770	    -13.24511584	    -10.61589097	      3.46000868	     -1.45215687	      4.11098331	     -7.88434680	      4.33512245	    -53.28456270	      4.54132815	     12.36571398	     -6.68666578	      5.45080626	     -7.88681663
      4.08000000	      5.91213874	     -5.22002830	      9.98006087	      0.52446159	      1.07453485	     -0.30405096	      5.87633224	      7.87669207	    -13.25051949	    -10.03913155	      3.58034888	     -1.50200677	      4.93178593	     -8.25192976	      4.34201473	    -54.28379574	      5.27661752	     11.43989093	     -6.78565513	      5.55430069	     -7.51017503
      4.09000000	      6.07940825	     -5.29852833	     10.09223498	      0.53083966	      1.07539452	     -0.30276817	      5.05520787	      8.19966905	    -13.19575983	     -9.45770275	      3.67459879	     -1.54349803	      5.70870723	     -8.51881042	      4.37724437	    -55.05217524	      6.08462060	     10.53816196	     -6.86907907	      5.60883275	     -7.11873635
      4.10000000	      6.22207978	     -5.31759964	     10.14615245	      0.53706690	      1.07627679	     -0.30150923	      4.26228859	      8.45404138	    -13.09515078	     -8.89117145	      3.76314319	     -1.59010974	      6.42708342	     -8.67304735	      4.41749065	    -55.58692280	      6.93027108	      9.67101362	     -6.94380765	      5.59843325	     -6.71080022
      4.11000000	      6.33050743	     -5.31628022	     10.13526292	      0.54311365	      1.07712772	     -0.30024764	      3.53542271	      8.67298091	    -12.97225898	     -8.37478211	      3.82691778	     -1.63043141	      7.11280566	     -8.76571830	      4.44734945	    -55.91827919	      7.83146732	      9.05616335	     -6.99950407	      5.56646624	     -6.26722741
      4.12000000	      6.43829374	     -5.22680291	     10.07998606	      0.54899412	      1.07803376	     -0.29904321	      2.80072740	      8.79409080	    -12.76020447	     -7.86551953	      3.91089963	     -1.71150591	      7.70533133	     -8.72214490	      4.47263974	    -56.02385499	      8.61547291	      8.23293812	     -7.08511082	      5.44391828	     -5.84367589
      4.13000000	      6.50722074	     -5.12270909	      9.96184107	      0.55471232	      1.07887277	     -0.29782383	      2.15174482	      8.87843066	    -12.56789103	     -7.43066548	      3.97679107	     -1.78476798	      8.27018551	     -8.64739680	      4.44690356	    -55.94453204	      9.43091323	      7.65952831	     -7.14454642	      5.30407716	     -5.40513200
      4.14000000	      6.54195542	     -5.02479930	      9.78163916	      0.56027396	      1.07962481	     -0.29656267	      1.58833889	      8.94947465	    -12.36281702	     -7.07508513	      4.04953355	     -1.84167021	      8.81091553	     -8.58051352	      4.35225220	    -55.69684497	     10.25306229	      7.25620003	     -7.18050545	      5.16978395	     -4.95250466
      4.15000000	      6.58111300	     -4.90378784	      9.56701743	      0.56567169	      1.08036797	     -0.29534082	      1.03601650	      8.98612287	    -12.09561742	     -6.74460622	      4.11479931	     -1.92447014	      9.27919871	     -8.47904970	      4.23152018	    -55.27678919	     11.00200722	      6.79154754	     -7.23970771	      5.02099840	     -4.50815698
      4.16000000	      6.58411926	     -4.80691483	      9.28842224	      0.57094070	      1.08099735	     -0.29404465	      0.57386754	      9.02702837	    -11.83563013	     -6.49285536	      4.20105559	     -1.97892727	      9.72995280	     -8.42764118	      4.01292713	    -54.71241567	     11.76246330	      6.44811272	     -7.26661078	      4.89366075	     -4.07011926
      4.17000000	      6.58547636	     -4.71399476	      8.97230364	      0.57609601	      1.08158818	     -0.29275302	      0.13772247	      9.05925006	    -11.53269761	     -6.27988450	      4.28616305	     -2.04101107	     10.11634629	     -8.38806297	      3.74954984	    -53.99717433	     12.46086576	      6.06552909	     -7.29820842	      4.77676461	     -3.62492061
      4.18000000	      6.61012740	     -4.61351246	      8.64424778	      0.58113534	      1.08218147	     -0.29150544	     -0.31047755	      9.07555390	    -11.21780286	     -6.08238068	      4.34525157	     -2.13378021	     10.41024146	     -8.34053614	      3.47961669	    -53.13707991	     13.07188102	      5.52760386	     -7.36471687	      4.66045004	     -3.19740090
